<svg xmlns="http://www.w3.org/2000/svg" xmlns:xlink="http://www.w3.org/1999/xlink" xmlns:xodm="http://www.corel.com/coreldraw/odm/2003" xml:space="preserve" version="1.1" style="shape-rendering:geometricPrecision;text-rendering:geometricPrecision;image-rendering:optimizeQuality;" viewBox="0 0 39370.08 49212.600000000006" x="0px" y="0px" fill-rule="evenodd" clip-rule="evenodd"><defs><style type="text/css">
   
    .fil0 {fill:black;fill-rule:nonzero}
   
  </style></defs><g><path class="fil0" d="M10415.86 37540.19c0,219.22 -333.33,219.22 -333.33,0 0,-773.3 -349.8,-1754.54 -749.91,-2409.89 -913.74,-982.64 -1380.66,-2381.39 -1547.96,-3973.17 -358.36,-3409.73 664.72,-7713.98 1587.11,-10645.59 467.11,-1484.64 1022.64,-2947.8 1511.34,-4429.67 458.69,-1390.87 933.08,-2801.41 1315.05,-4215.45 478.28,-1770.67 1045.15,-3868.02 3146.46,-3953.93 360.09,-1808 1032.12,-5663.01 3651.91,-4862.03 423.22,-961.53 1095.78,-1490.76 2204.65,-1365.71 1411.34,159.16 1546.04,1283.63 1541.07,2452.31 769.25,-388.29 1729.54,-13.03 2160.52,720.84 462.74,787.96 451.04,1768.05 440.85,2548.75 -25.48,1950.56 -193.19,3978.93 -358.66,5980.3 -225.04,2721.89 -445.92,5393.65 -296.84,7738.74 657.7,-596.18 1432.07,-1066.34 2216.02,-1391.78 1134.59,-471 3204.53,-935.65 4180.57,70.7 975.59,1005.93 184.13,1905.23 -696.73,2512.94 -1428.93,985.91 -2529.19,1745.04 -3386.65,3432.64 -1475.76,2904.52 -3592.05,6538 -6136.3,8634.01 -49.3,831.55 -19.84,1727.28 146.59,2544.7 43.67,214.11 -281.85,280.49 -325.52,66.41 -153.87,-755.75 -194.29,-1567.89 -166.95,-2338.46 -499.35,375.57 -1010.67,681.76 -1530.33,897.83 -202.1,83.93 -329.7,-223.37 -127.61,-307.29 3289.41,-1367.67 6270.01,-6550.58 7843.24,-9646.94 895.9,-1763.25 2026.44,-2543.28 3494.72,-3556.33 694.24,-478.96 1452.65,-1177.34 647.26,-2007.73 -859.21,-885.89 -2826.9,-405.24 -3814.69,4.82 -1169.18,485.36 -1871.82,1052.19 -2594.51,1803.82 -1425.78,1482.89 -2736.54,3429.85 -4994.56,3564.11 -218.38,12.84 -237.89,-319.2 -19.53,-332.03 2200.3,-130.83 3534.76,-2217.74 4952.29,-3650.5 -187.96,-2436.69 42.48,-5224.62 277.49,-8067 165.51,-2001.83 333.27,-4030.76 357.66,-5977.94 8.72,-695.96 31.18,-1631.31 -394.28,-2355.79 -437.09,-744.28 -1318.32,-920.37 -1928.31,-447.38 -733.65,568.91 -834.71,1896.82 -936.7,2780.15 -185.01,1602.16 -420.16,3445.07 -672.77,5183.27 -229.5,1579.15 -473.9,3074.32 -708.92,4227.64 147.43,48.32 289.65,102.94 416.73,161.28 198.67,90.77 60.66,392.85 -138.02,302.08 -352.46,-161.81 -823.61,-295.79 -1210.07,-330.24 -217.51,-18.84 -188.87,-349.56 28.65,-330.72 175.05,15.61 377.69,52.67 582.6,104.67 230.89,-1137.85 472.13,-2616.28 699.61,-4181.58 252.11,-1734.74 486.72,-3573.19 671.3,-5171.37 113.59,-983.54 219.17,-2256.48 987.72,-2954.8 -14.3,-1006.87 87.81,-2203.26 -1243.41,-2353.39 -1113.91,-125.61 -1645.59,522.39 -1984.56,1473.13 -437.05,1225.76 -644.46,3169.52 -866.8,4437.91 -514.91,2937.37 -1097.01,6258.11 -1377.99,8451.74 244.29,-8.13 473.84,6.09 641.21,38.64 214.94,41.1 152.46,367.92 -62.5,326.82 -407.52,-79.26 -1129.87,-29 -1509.61,147.04 -198.67,91.63 -338,-210.44 -139.32,-302.08 201.71,-93.5 464.79,-153.48 732.44,-185.09 281.81,-2225.9 868.91,-5575.14 1387.64,-8534.36 235.91,-1345.83 438.4,-3249.98 888.05,-4507.94 -2348.56,-674.17 -2963.51,3328.48 -3274.22,4920.03 -583.96,2991.15 -1378.89,6110.77 -1676.17,9128.31 177.97,-25.57 324.79,-34.69 402.35,-34.69 219.22,0 219.22,333.33 0,333.33 -386.98,0 -1016.63,130.66 -1333.91,365.93 -175.55,130.17 -373.46,-136.76 -197.91,-266.92 225.64,-167.32 517.23,-269.32 789.77,-333.67 277.97,-3000.99 1072.08,-6247.13 1691.99,-9222.96 -1791.95,135.9 -2313.93,2067.28 -2755.41,3701.71 -383.44,1419.51 -859.79,2837.39 -1320.26,4233.68 -302.91,918.5 -612.48,1833.76 -942.44,2742.93 128.04,-89.85 272.72,-164.06 437.7,-223.78 205.53,-74.5 318.8,238 113.28,312.5 -765.96,277.28 -896.11,885.72 -1118.58,1592.82 -913.19,2902.39 -1926.6,7158.71 -1574.09,10512.78 240.16,2285 1117.64,4146.48 3106.57,4846.77 206.37,72.78 95.72,386.59 -110.68,313.8 -415.91,-146.44 -786.26,-339.15 -1115.1,-572.13 233.94,560.5 419.69,1221.97 419.69,1828.46zm-2111.19 -29223.17c155,155 -80.68,390.68 -235.68,235.68l-1531.79 -1531.79c-155,-155 80.68,-390.68 235.68,-235.68l1531.79 1531.79zm24524.95 24524.95c155,155 -80.68,390.68 -235.68,235.68l-1531.79 -1531.79c-155,-155 80.68,-390.68 235.68,-235.68l1531.79 1531.79zm-28807.86 -17279.38c211.51,56.51 125.59,378.13 -85.94,321.61l-2092.46 -560.67c-211.51,-56.51 -125.59,-378.13 85.94,-321.61l2092.46 560.67zm33501.7 8976.76c211.51,56.51 125.59,378.13 -85.94,321.61l-2092.46 -560.67c-211.51,-56.51 -125.59,-378.13 85.94,-321.61l2092.46 560.67zm-33587.64 -560.67c211.53,-56.52 297.45,265.1 85.94,321.61l-2092.46 560.67c-211.53,56.52 -297.45,-265.1 -85.94,-321.61l2092.46 -560.67zm33501.7 -8976.76c211.53,-56.52 297.45,265.1 85.94,321.61l-2092.46 560.67c-211.53,56.52 -297.45,-265.1 -85.94,-321.61l2092.46 -560.67zm-4843.58 -8216.68c155,-155 390.68,80.68 235.68,235.68l-1531.79 1531.79c-155,155 -390.68,-80.68 -235.68,-235.68l1531.79 -1531.79zm-19011.3 17737.91c-82.54,71.42 -191.26,-54.24 -108.72,-125.65 1930.7,-1669.35 4193.62,-2570.12 6717.19,-2863.86 108.76,-12.42 127.63,152.95 18.88,165.36 -2490.15,289.85 -4722.09,1176.79 -6627.35,2824.15zm-2595.45 -1912.31c-108.33,13.7 -129.16,-151.01 -20.83,-164.71 2966.77,-378.28 4569.98,-2281.3 7142.82,-2663.33 108.33,-15.84 132.41,148.87 24.09,164.71 -2551.28,378.83 -4156.46,2282.14 -7146.07,2663.33zm2265.41 9366.7c4.71,109.19 -161.31,116.34 -166.02,7.16 -112.98,-2562.33 1424.29,-5866.47 3945.38,-6821.44 102.34,-38.53 160.92,117.07 58.59,155.6 -2452.3,928.91 -3947.71,4169.37 -3837.96,6658.68z"/></g><text x="0" y="39385.08" fill="#000000" font-size="5px" font-weight="bold" font-family="'Helvetica Neue', Helvetica, Arial-Unicode, Arial, Sans-serif">Created by Oleksandr Panasovskyi</text><text x="0" y="39390.08" fill="#000000" font-size="5px" font-weight="bold" font-family="'Helvetica Neue', Helvetica, Arial-Unicode, Arial, Sans-serif">from the Noun Project</text></svg>