<svg xmlns="http://www.w3.org/2000/svg" xmlns:xlink="http://www.w3.org/1999/xlink" version="1.1" x="0px" y="0px" viewBox="0 0 100 125" enable-background="new 0 0 100 100" xml:space="preserve"><g><path d="M80.157,36.282c-4.253-5.721-10.007-10.044-16.653-12.531l-0.392-8.25l-2.68-4.889l-0.208-5.41l-8.2,0.313l-7.29,5.271   l-2.456,0.094l-10.197,5.595l0.372,9.769C20.487,33.066,13.39,45.808,13.915,59.587c0.772,20.249,17.876,36.095,38.127,35.322   c20.249-0.771,36.097-17.875,35.325-38.123C87.081,49.333,84.589,42.243,80.157,36.282z M62.018,15.809l0.396,8.357   c0,0.002,0,0.004,0,0.006l0.066,1.406L58.294,45.12l-0.137,0.626l6.353,40.438c-7.452,3.694-15.862,4.273-23.747,1.643   l-1.631-46.54l-5.177-4.797l-0.671-17.594l4.406,8.249l4.103-0.156l1.01,2.685l2.458-1.348l-2.631,2.84l0.58,15.188l1.107-0.042   l-0.561-14.729l9.279-10.016l4.759-0.182l-0.043-1.108l-11.912,0.454l-0.153-4.033l7.131-2.683l1.579-1.703l0.139,3.649   l1.107-0.043l-0.168-4.432l4.09-0.156L62.018,15.809z M33.504,16.958l3.741-2.052l4.136,10.988l-3.041,0.116L33.504,16.958z    M51.467,21.626l-2.939,3.173l-0.032-3.059L51.467,21.626z M51.929,13.164l-4.576,1.723l-1.72-3.38l6.064-4.387L51.929,13.164z    M59.307,10.23l-3.877,0.148v0l-0.015,0.001l-0.539,0.02l0.001,0.011l-0.246,0.014l-1.63,1.759l-0.213-5.588l6.37-0.243   L59.307,10.23z M42.583,11.978l2.007-0.076l1.718,3.377l-1.763,0.664l0.226,5.938l2.617-0.1l0.042,4.09l-4.041,2.217l-5.162-13.721   L42.583,11.978z M52,93.802c-19.641,0.749-36.228-14.619-36.978-34.257C14.521,46.375,21.2,34.183,32.502,27.498l0.145,3.795   c-13.564,9.049-18.265,26.793-10.922,41.415c3.803,7.571,10.307,13.27,18.315,16.048c3.876,1.344,7.881,1.936,11.85,1.785   c4.558-0.174,9.071-1.329,13.284-3.446l0.091-0.046c0.038-0.02,0.077-0.037,0.109-0.055c7.651-3.909,13.338-10.562,16.016-18.733   c2.677-8.173,2.025-16.908-1.833-24.598c-3.491-6.954-9.351-12.389-16.525-15.36l0.564-2.632l-0.035-0.709   c6.258,2.436,11.677,6.562,15.707,11.983c4.298,5.781,6.714,12.658,6.99,19.884C87.007,76.466,71.639,93.053,52,93.802z"/></g><text x="0" y="115" fill="#000000" font-size="5px" font-weight="bold" font-family="'Helvetica Neue', Helvetica, Arial-Unicode, Arial, Sans-serif">Created by Elizabeth Fuqua</text><text x="0" y="120" fill="#000000" font-size="5px" font-weight="bold" font-family="'Helvetica Neue', Helvetica, Arial-Unicode, Arial, Sans-serif">from the Noun Project</text></svg>