<svg xmlns="http://www.w3.org/2000/svg" xmlns:xlink="http://www.w3.org/1999/xlink" version="1.1" x="0px" y="0px" viewBox="0 0 100 125" enable-background="new 0 0 100 100" xml:space="preserve"><g><path d="M54.17,49.317c-0.408-0.104-0.826,0.145-0.932,0.554c-0.108,0.41,0.14,0.831,0.55,0.942   c0.082,0.022,1.992,0.571,2.225,3.211c0.037,0.4,0.374,0.704,0.77,0.704c0.024,0,0.047-0.001,0.071-0.004   c0.424-0.037,0.737-0.413,0.701-0.837C57.219,50.123,54.294,49.348,54.17,49.317z"/><path d="M36.693,48.344l-3.372,0.772c-0.404,0.092-0.659,0.491-0.575,0.896c0.302,1.442,1.275,2.304,2.606,2.304   c0.32,0,0.549-0.053,0.59-0.062c0.104-0.027,1.03-0.277,1.528-1.17c0.35-0.628,0.389-1.379,0.113-2.232   C37.464,48.476,37.076,48.253,36.693,48.344z M36.15,50.335c-0.176,0.326-0.565,0.442-0.563,0.442   c-0.006,0.002-0.1,0.021-0.234,0.021c-0.368,0-0.645-0.129-0.839-0.397l1.728-0.396C36.231,50.129,36.201,50.238,36.15,50.335z"/><path d="M70.626,10.765c0-0.003,0-0.005,0-0.008c0.338-1.199,0.194-2.458-0.41-3.547c-0.608-1.097-1.606-1.891-2.813-2.237   c-1.204-0.346-2.472-0.203-3.569,0.405c-1.098,0.607-1.892,1.607-2.236,2.812c0,0-0.002,0.001-0.002,0.002l-3.043,10.753   c-0.042,0.067-0.075,0.138-0.096,0.218c-0.017,0.066-0.021,0.131-0.021,0.196l-3.794,13.414c0,0,0,0.001-0.001,0.002   c-0.517,1.748-1.376,1.754-1.66,1.755c-0.004,0-0.008,0-0.011,0c-1.215,0-1.509-1.275-1.57-1.666c0-0.002,0-0.003,0-0.005l0,0   l-3.89-24.003c0,0,0,0,0,0s0-0.001,0-0.002v0c0,0,0,0,0,0c-0.197-1.237-0.863-2.324-1.877-3.061   c-1.014-0.737-2.254-1.035-3.495-0.838c-1.238,0.197-2.326,0.864-3.063,1.878c-0.737,1.015-1.034,2.254-0.838,3.494   c0,0.001,0,0.001,0,0.001l3.33,20.779c-0.735-0.624-1.685-0.993-2.714-0.993c-0.227,0-0.458,0.02-0.684,0.056   c-2.259,0.372-3.799,2.494-3.463,4.77c-0.594-0.32-1.268-0.502-1.977-0.502c-0.279,0-0.561,0.028-0.837,0.084   c-2.267,0.459-3.737,2.678-3.273,4.964l1.419,6.224c-0.672,2.218-5.904,21.287,7.796,34.322v14.137   c0,0.426,0.347,0.774,0.773,0.774s0.773-0.349,0.773-0.774V83.614h3.11c0.427,0,0.774-0.345,0.774-0.774   c0-0.426-0.347-0.771-0.774-0.771h-3.11v-1.597h6.13c0.426,0,0.772-0.346,0.772-0.773c0-0.426-0.346-0.773-0.772-0.773h-6.596   C28.4,68.944,29.606,55.161,30.804,49.08l0.46,2.02c0.396,1.946,2.124,3.36,4.108,3.36c0.28,0,0.562-0.03,0.838-0.085   c2.073-0.421,3.476-2.313,3.344-4.384c0.444,0.152,0.943,0.236,1.508,0.236c0.228,0,0.458-0.019,0.684-0.056   c0.902-0.148,1.71-0.58,2.333-1.229l1.217,2.369c-2.418,1.644-10.614,8.347-6.149,21.228c0.11,0.319,0.409,0.518,0.729,0.518   c0.083,0,0.17-0.014,0.252-0.043c0.404-0.138,0.618-0.579,0.479-0.982c-4.739-13.674,5.625-19.523,6.067-19.765   c0.369-0.2,0.511-0.661,0.319-1.033l-4.97-9.667c-0.662-1.302-0.142-2.9,1.16-3.563c0.083-0.042,0.171-0.066,0.258-0.1   c-0.199,0.77-0.169,1.872,0.618,3.357c0.136,0.253,0.397,0.403,0.671,0.403c0.089,0,0.18-0.016,0.268-0.048l2.519-0.948   c0.001,0,0.001,0,0.002,0l4.197,8.169c0.194,0.38,0.661,0.528,1.039,0.334c0.38-0.196,0.53-0.661,0.335-1.041l-4.966-9.668   c-0.81-1.59-2.502-2.438-4.181-2.263l-1.312-8.186l1.246-0.2c0.422-0.068,0.708-0.464,0.641-0.886   c-0.067-0.421-0.467-0.705-0.885-0.641l-1.246,0.2l-0.135-0.844l1.921-0.372c0.42-0.082,0.692-0.487,0.612-0.906   c-0.082-0.419-0.486-0.692-0.907-0.611l-1.872,0.363l-0.944-5.885l4.602-0.983c0.417-0.088,0.684-0.499,0.595-0.917   c-0.088-0.418-0.503-0.685-0.917-0.595l-4.522,0.966l-0.133-0.828l2.416-0.468c0.417-0.081,0.691-0.487,0.61-0.907   c-0.081-0.418-0.485-0.693-0.906-0.611l-2.365,0.458l-0.685-4.266v0c-0.131-0.829,0.07-1.662,0.562-2.342   c0.495-0.681,1.226-1.128,2.056-1.26c0.831-0.129,1.664,0.068,2.344,0.562c0.681,0.495,1.128,1.225,1.26,2.056c0,0,0,0,0,0.001   c0,0,0,0,0,0l3.888,24c0,0.001,0,0.002,0,0.002c0.284,1.809,1.498,2.975,3.099,2.975c0.006,0,0.014,0,0.022,0   c1.046-0.007,2.44-0.511,3.134-2.876c0-0.001,0-0.002,0-0.003c0.001-0.002,0.001-0.002,0.002-0.003l0.952-3.371l4.056,1.161   c0.072,0.02,0.143,0.029,0.213,0.029c0.337,0,0.646-0.22,0.743-0.56c0.118-0.41-0.121-0.838-0.53-0.956l-4.059-1.162l0.235-0.831   l1.622,0.407c0.063,0.016,0.127,0.024,0.189,0.024c0.345,0,0.661-0.233,0.749-0.585c0.104-0.414-0.147-0.834-0.562-0.938   l-1.578-0.397l1.621-5.724l2.37,0.597c0.067,0.016,0.128,0.023,0.19,0.023c0.347,0,0.661-0.233,0.748-0.584   c0.105-0.414-0.146-0.834-0.56-0.938l-2.328-0.585l0.229-0.819l3.24,0.814c0.064,0.017,0.126,0.024,0.188,0.024   c0.348,0,0.661-0.234,0.75-0.584c0.104-0.414-0.147-0.834-0.561-0.937l-3.194-0.804l2.23-7.887l0,0   c0.233-0.807,0.767-1.476,1.499-1.882c0.735-0.408,1.587-0.505,2.396-0.272c0.81,0.231,1.478,0.765,1.887,1.501   c0.406,0.736,0.503,1.586,0.271,2.395c-0.001,0.003-0.001,0.005-0.002,0.009c-0.001,0.002-0.003,0.005-0.005,0.007l-7.486,28.398   c-0.002,0.007-0.002,0.013-0.005,0.019c-0.006,0.026-0.008,0.055-0.012,0.083c-0.002,0.025-0.006,0.05-0.006,0.075   c0,0.006-0.002,0.013-0.002,0.021v37.341c-0.667,0.396-1.479,0.829-2.462,1.3c-0.386,0.184-0.548,0.646-0.364,1.031   c0.133,0.276,0.408,0.44,0.698,0.44c0.111,0,0.225-0.025,0.331-0.077c0.653-0.312,1.247-0.615,1.797-0.915v3.993   c-0.667,0.396-1.479,0.83-2.462,1.301c-0.386,0.184-0.548,0.646-0.364,1.031c0.133,0.276,0.408,0.438,0.698,0.438   c0.111,0,0.225-0.023,0.331-0.075c0.653-0.312,1.247-0.615,1.797-0.918v4.282c-0.667,0.397-1.479,0.832-2.462,1.302   c-0.386,0.184-0.548,0.646-0.364,1.029c0.133,0.278,0.408,0.441,0.698,0.441c0.111,0,0.225-0.024,0.331-0.076   c0.653-0.312,1.247-0.616,1.797-0.916v4.247c0,0.426,0.345,0.774,0.771,0.774s0.772-0.349,0.772-0.774v-5.168   c2.194-1.435,3.175-2.768,3.031-4.096c-0.134-1.27-1.282-2.056-2.256-2.502c1.65-1.234,2.382-2.399,2.256-3.559   c-0.123-1.17-1.11-1.932-2.027-2.394c1.487-1.168,2.147-2.275,2.027-3.38c-0.173-1.637-2.033-2.476-3.031-2.81V39.066   L70.626,10.765z M35.903,52.86c-0.175,0.033-0.354,0.053-0.531,0.053c-1.253,0-2.344-0.892-2.597-2.14l-2.649-11.616   c-0.29-1.432,0.638-2.833,2.069-3.123c0.176-0.036,0.354-0.054,0.53-0.054c1.253,0,2.344,0.893,2.597,2.141l2.649,11.616   C38.263,51.169,37.334,52.571,35.903,52.86z M42.613,46.091c-0.514,0.052-1.119,0.027-1.56-0.248   c-0.296-0.184-0.505-0.472-0.633-0.869l1.361-0.502L42.613,46.091z M40.649,42.27l0.433,0.841l-1.797,0.665   c-0.331,0.122-0.534,0.453-0.493,0.801c0.141,1.178,0.63,2.038,1.457,2.554c0.614,0.384,1.319,0.501,1.951,0.501   c0.425,0,0.811-0.053,1.121-0.114c-0.428,0.538-1.165,1.02-1.824,1.127c-0.145,0.024-0.29,0.036-0.434,0.036   c-0.766,0-1.457-0.33-1.944-0.863l-2.286-10.023c-0.024-0.125-0.056-0.247-0.092-0.366l-0.509-2.691   c-0.236-1.442,0.743-2.808,2.184-3.045c0.145-0.023,0.29-0.035,0.434-0.035c1.301,0,2.4,0.933,2.615,2.237l0.566,3.002   C40.311,38.064,39.681,40.363,40.649,42.27z M46.75,39.165l0.073,0.141l-1.7,0.641c-0.492-1.243-0.179-1.887-0.004-2.119   C45.799,38.024,46.403,38.483,46.75,39.165z M64.657,85.067c0.027,0.247-0.076,0.927-1.495,2.031V83.75   C63.864,84.056,64.601,84.524,64.657,85.067z M64.657,79.007c0.027,0.247-0.076,0.927-1.495,2.032v-3.353   C63.868,77.992,64.601,78.461,64.657,79.007z M64.657,73.233c0.027,0.246-0.076,0.927-1.495,2.032v-3.35   C63.864,72.223,64.601,72.693,64.657,73.233z"/></g><text x="0" y="115" fill="#000000" font-size="5px" font-weight="bold" font-family="'Helvetica Neue', Helvetica, Arial-Unicode, Arial, Sans-serif">Created by dan lowenstein</text><text x="0" y="120" fill="#000000" font-size="5px" font-weight="bold" font-family="'Helvetica Neue', Helvetica, Arial-Unicode, Arial, Sans-serif">from the Noun Project</text></svg>